<?xml version="1.0" encoding="utf-8"?>
<?xml-stylesheet type="text/xsl" href="rss1.xsl"?>
<rss version="2.0" xmlns:atom="http://www.w3.org/2005/Atom" xmlns:content="http://purl.org/rss/1.0/modules/content/" xmlns:dc="http://purl.org/dc/elements/1.1/" xmlns:media="http://search.yahoo.com/mrss/">
<channel>
 <title>Getty</title>
 <link>http://www.gettyimg.com/</link>
 <atom:link href="http://www.gettyimg.com/" rel="self" type="application/rss+xml" />

 
                <item>
                <title><![CDATA[【UPSCALED】Ariana Grande - no tears left to cry (4K-AI-REMASTERED-H.265-60fps)]]></title>
                <link><![CDATA[https://sharemania.us/threads/ariana-grande-no-tears-left-to-cry-4k-ai-remastered-h-265-60fps.227799/]]></link>
                <description><![CDATA[<article>
<blockquote class="messageText SelectQuoteContainer ugc baseHtml">
<img src="https://i.imgur.com/sqHglQ1.png" class="bbCodeImage LbImage" alt="[​IMG]" data-url="https://i.imgur.com/sqHglQ1.png" style=""><br>
<img src="https://i.imgur.com/w6bfGVi.png" class="bbCodeImage LbImage" alt="[​IMG]" data-url="https://i.imgur.com/w6bfGVi.png" style=""><br>
<img src="https://i.imgur.com/99Jv1OF.png" class="bbCodeImage LbImage" alt="[​IMG]" data-url="https://i.imgur.com/99Jv1OF.png" style=""><br>
<br>
<div class="bbCodeBlock bbCodeCode">
<div class="type">Code:</div>
<pre>General
Format                                   : MPEG-4
Format profile                           : Base Media / Version 2
Codec ID                                 : mp42 (mp42/iso2/mp41)
File size                                : 450 MiB
Duration                                 : 3 min 58 s
Overall bit rate                         : 15.8 Mb/s
Frame rate                               : 60.000 FPS

Video
ID                                       : 1
Format                                   : HEVC
Format/Info                              : High Efficiency Video Coding
Format profile                           : Main@L5.1@Main
Codec ID                                 : hvc1
Codec ID/Info                            : High Efficiency Video Coding
Duration                                 : 3 min 58 s
Bit rate                                 : 15.5 Mb/s
Width                                    : 3 840 pixels
Height                                   : 2 160 pixels
Display aspect ratio                     : 16:9
Frame rate mode                          : Constant
Frame rate                               : 60.000 FPS
Color space                              : YUV
Chroma subsampling                       : 4:2:0 (Type 0)
Bit depth                                : 8 bits
Bits/(Pixel*Frame)                       : 0.031
Stream size                              : 440 MiB (98%)
Color range                              : Limited
Color primaries                          : BT.709
Transfer characteristics                 : BT.709
Matrix coefficients                      : BT.709
Codec configuration box                  : hvcC

Audio
ID                                       : 2
Format                                   : AAC LC
Format/Info                              : Advanced Audio Codec Low Complexity
Codec ID                                 : mp4a-40-2
Duration                                 : 3 min 58 s
Source duration                          : 3 min 58 s
Bit rate mode                            : Constant
Bit rate                                 : 322 kb/s
Channel(s)                               : 2 channels
Channel layout                           : L R
Sampling rate                            : 48.0 kHz
Frame rate                               : 46.875 FPS (1024 SPF)
Compression mode                         : Lossy
Stream size                              : 9.15 MiB (2%)
Source stream size                       : 9.15 MiB (2%)
Title                                    : Stereo / Stereo</pre>
</div><div style="text-align: center">
<div class="bbCodeBlock bbCodeVfcHH HiddenContent">
<div class="attribution type">Hidden Content:</div>
<blockquote>You must reply before you can see the hidden data contained here.</blockquote>
</div></div>
<div class="messageTextEndMarker">&nbsp;</div>
</blockquote>
</article>]]></description>
                <author><![CDATA[Librious]]></author>
                </item>

                
                <item>
                <title><![CDATA[【UPSCALED】Cassie - King of Hearts (4K-AI-REMASTERED-H.265)]]></title>
                <link><![CDATA[https://sharemania.us/threads/cassie-king-of-hearts-4k-ai-remastered-h-265.227800/]]></link>
                <description><![CDATA[<article>
<blockquote class="messageText SelectQuoteContainer ugc baseHtml">
<img src="https://i.imgur.com/5ZbnPe4.png" class="bbCodeImage LbImage" alt="[​IMG]" data-url="https://i.imgur.com/5ZbnPe4.png" style=""><br>
<img src="https://i.imgur.com/OnHcpT8.png" class="bbCodeImage LbImage" alt="[​IMG]" data-url="https://i.imgur.com/OnHcpT8.png" style=""><br>
<img src="https://i.imgur.com/JVjDhjo.png" class="bbCodeImage LbImage" alt="[​IMG]" data-url="https://i.imgur.com/JVjDhjo.png" style=""><br>
<br>
<div class="bbCodeBlock bbCodeCode">
<div class="type">Code:</div>
<pre>General
Format                                   : MPEG-4
Format profile                           : Base Media / Version 2
Codec ID                                 : mp42 (mp42/iso2/mp41)
File size                                : 186 MiB
Duration                                 : 3 min 43 s
Overall bit rate                         : 6 991 kb/s
Frame rate                               : 23.976 FPS

Video
ID                                       : 1
Format                                   : HEVC
Format/Info                              : High Efficiency Video Coding
Format profile                           : Main@L5@Main
Codec ID                                 : hvc1
Codec ID/Info                            : High Efficiency Video Coding
Duration                                 : 3 min 43 s
Bit rate                                 : 6 620 kb/s
Width                                    : 3 840 pixels
Height                                   : 1 920 pixels
Display aspect ratio                     : 2.000
Frame rate mode                          : Variable
Frame rate                               : 23.976 (24000/1001) FPS
Minimum frame rate                       : 23.974 FPS
Maximum frame rate                       : 23.981 FPS
Color space                              : YUV
Chroma subsampling                       : 4:2:0 (Type 0)
Bit depth                                : 8 bits
Bits/(Pixel*Frame)                       : 0.037
Stream size                              : 176 MiB (95%)
Color range                              : Limited
Color primaries                          : BT.709
Transfer characteristics                 : BT.709
Matrix coefficients                      : BT.709
Codec configuration box                  : hvcC

Audio
ID                                       : 2
Format                                   : AAC LC
Format/Info                              : Advanced Audio Codec Low Complexity
Codec ID                                 : mp4a-40-2
Duration                                 : 3 min 43 s
Source duration                          : 3 min 43 s
Bit rate mode                            : Constant
Bit rate                                 : 364 kb/s
Channel(s)                               : 2 channels
Channel layout                           : L R
Sampling rate                            : 48.0 kHz
Frame rate                               : 46.875 FPS (1024 SPF)
Compression mode                         : Lossy
Stream size                              : 9.69 MiB (5%)
Source stream size                       : 9.69 MiB (5%)
Title                                    : Stereo / Stereo</pre>
</div><div style="text-align: center">
<div class="bbCodeBlock bbCodeVfcHH HiddenContent">
<div class="attribution type">Hidden Content:</div>
<blockquote>You must reply before you can see the hidden data contained here.</blockquote>
</div></div>
<div class="messageTextEndMarker">&nbsp;</div>
</blockquote>
</article>]]></description>
                <author><![CDATA[Librious]]></author>
                </item>

                
                <item>
                <title><![CDATA[【Requests】[REQ AUD] - Bobby Deerfield album by Niia]]></title>
                <link><![CDATA[https://sharemania.us/threads/bobby-deerfield-album-by-niia.227801/]]></link>
                <description><![CDATA[<article>
<blockquote class="messageText SelectQuoteContainer ugc baseHtml">
I'm requesting the Bobby Deerfield album by Niia in iTunes or m4a file.<br>
<br>
Thank you.
<div class="messageTextEndMarker">&nbsp;</div>
</blockquote>
</article>]]></description>
                <author><![CDATA[pastafreak]]></author>
                </item>

                </channel></rss>